<svg width="41" height="41" viewBox="0 0 41 41" fill="none" xmlns="http://www.w3.org/2000/svg">
<path fill-rule="evenodd" clip-rule="evenodd" d="M40.9312 20.5511C40.9312 31.5968 31.9768 40.5511 20.9312 40.5511C9.88546 40.5511 0.931152 31.5968 0.931152 20.5511C0.931152 9.50539 9.88546 0.551086 20.9312 0.551086C31.9768 0.551086 40.9312 9.50539 40.9312 20.5511ZM11.5169 17.1369L19.5169 9.13687C20.298 8.35582 21.5643 8.35582 22.3454 9.13687L30.3454 17.1369C31.1264 17.9179 31.1264 19.1843 30.3454 19.9653C29.5643 20.7463 28.298 20.7463 27.5169 19.9653L22.9312 15.3795V30.5511C22.9312 31.6557 22.0357 32.5511 20.9312 32.5511C19.8266 32.5511 18.9312 31.6557 18.9312 30.5511V15.3795L14.3454 19.9653C13.5643 20.7463 12.298 20.7463 11.5169 19.9653C10.7359 19.1843 10.7359 17.9179 11.5169 17.1369Z" fill="#734EE1" fill-opacity="0.13"/>
</svg>
